<svg width="185" height="185" viewBox="0 0 185 185" fill="none" xmlns="http://www.w3.org/2000/svg">
  <path d="M0 92.5C0 41.4137 41.4137 0 92.5 0H135C162.614 0 185 22.3858 185 50V92.5C185 143.586 143.586 185 92.5 185V185C41.4137 185 0 143.586 0 92.5V92.5Z" fill="url(#paint0_linear_13_13)"/>
  <path d="M71.2031 139.516V66.3281H100.625C115.891 66.3281 124.523 72.1328 124.523 83.7422C124.523 89.9766 120.547 94.7266 116.531 97.5234C121.172 100.32 123.492 105.07 123.492 110.992C123.492 121.875 115.086 139.516 100.625 139.516H71.2031ZM80.6172 81.0391H100.625C108.578 81.0391 112.641 77.7891 112.641 70.9453C112.641 65.7266 109.148 61.7344 100.383 61.7344H80.6172V81.0391ZM80.6172 112.648H100.625C109.047 112.648 112.641 108.797 112.641 101.578C112.641 96.4219 109.313 92.2266 100.734 92.2266H80.6172V112.648Z" fill="black" fill-opacity="0.86"/>
  <defs>
    <linearGradient id="paint0_linear_13_13" x1="0" y1="92" x2="185" y2="92" gradientUnits="userSpaceOnUse">
      <stop stop-color="#FFDB6E"/>
      <stop offset="1" stop-color="#FFBC5E"/>
    </linearGradient>
  </defs>
</svg>
